<svg width="74" height="59" viewBox="0 0 74 59" fill="none" xmlns="http://www.w3.org/2000/svg">
<g clip-path="url(#clip0_72_3881)">
<path d="M58.4569 31L58.192 31.85L50.0781 57.6278L49.8076 58.4722L51.5319 59L51.7967 58.15L59.9106 32.3722L60.1755 31.5278L58.4569 31ZM46.0155 36.6333L45.3562 37.2444L37.6931 44.3556L37 45L37.6931 45.65L45.3562 52.7611L46.0155 53.3722L47.2495 52.0778L46.5902 51.4667L39.6258 45L46.5959 38.5333L47.2551 37.9222L46.0211 36.6278L46.0155 36.6333ZM62.7336 37.9611L63.4098 38.55C64.9762 39.9222 66.0862 40.9944 67.2075 42.0778C68.1542 42.9889 69.1064 43.9056 70.3348 45.0111L63.3872 51.4611L62.728 52.0722L63.962 53.3667L64.6212 52.7556L72.2844 45.6444L73 44.9778L72.2675 44.3333C70.701 42.9611 69.591 41.8889 68.4697 40.8056C67.3428 39.7222 66.2046 38.6278 64.6043 37.2222L63.9282 36.6333L62.728 37.9611H62.7336Z" fill="#F0FF46" stroke="#F0FF46"/>
<path d="M16.5769 4.65625V14.5938H6.65385V4.65625H16.5769ZM6.65385 3H5V4.65625V14.5938V16.25H6.65385H10.7885V39.4375V41.0938V42.75H6.65385H5V44.4062V54.3438V56H6.65385H16.5769H18.2308V54.3438V44.4062V42.75H16.5769H12.4423V41.0938V39.4375C12.4423 34.4066 16.5149 30.3281 21.5385 30.3281H37.4615C43.3947 30.3281 48.2115 25.5043 48.2115 19.5625V16.25H52.3462H54V14.5938V4.65625V3H52.3462H42.4231H40.7692V4.65625V14.5938V16.25H42.4231H46.5577V19.5625C46.5577 24.5934 42.4851 28.6719 37.4615 28.6719H21.5385C17.7036 28.6719 14.3442 30.6801 12.4423 33.6924V16.25H16.5769H18.2308V14.5938V4.65625V3H16.5769H6.65385ZM42.4231 4.65625H52.3462V14.5938H42.4231V4.65625ZM6.65385 44.4062H16.5769V54.3438H6.65385V44.4062Z" fill="#F0FF46" stroke="#F0FF46"/>
</g>
<defs>
<clipPath id="clip0_72_3881">
<rect width="74" height="59" fill="white"/>
</clipPath>
</defs>
</svg>
