<svg width="46" height="39" viewBox="0 0 46 39" fill="none" xmlns="http://www.w3.org/2000/svg">
<path d="M44.5703 0.765625C45.0859 1.28125 45.0859 2.14062 44.4844 2.65625L29.3594 16.4062C28.8438 16.9219 27.9844 16.9219 27.4688 16.4062L17.3281 6.17969L3.14844 16.4922C2.54688 17.0078 1.6875 16.8359 1.25781 16.2344C0.742188 15.6328 0.914062 14.7734 1.51562 14.2578L16.6406 3.25781C17.1562 2.91406 17.9297 3 18.4453 3.42969L28.5 13.4844L42.6797 0.679688C43.1953 0.164062 44.0547 0.164062 44.5703 0.765625ZM7.875 34.625V29.125C7.875 28.4375 7.1875 27.75 6.5 27.75C5.72656 27.75 5.125 28.4375 5.125 29.125V34.625C5.125 35.3984 5.72656 36 6.5 36C7.1875 36 7.875 35.3984 7.875 34.625ZM6.5 25C8.73438 25 10.625 26.8906 10.625 29.125V34.625C10.625 36.9453 8.73438 38.75 6.5 38.75C4.17969 38.75 2.375 36.9453 2.375 34.625V29.125C2.375 26.8906 4.17969 25 6.5 25ZM18.875 20.875C18.875 20.1875 18.1875 19.5 17.5 19.5C16.7266 19.5 16.125 20.1875 16.125 20.875V34.625C16.125 35.3984 16.7266 36 17.5 36C18.1875 36 18.875 35.3984 18.875 34.625V20.875ZM13.375 20.875C13.375 18.6406 15.1797 16.75 17.5 16.75C19.7344 16.75 21.625 18.6406 21.625 20.875V34.625C21.625 36.9453 19.7344 38.75 17.5 38.75C15.1797 38.75 13.375 36.9453 13.375 34.625V20.875ZM29.875 34.625V26.375C29.875 25.6875 29.1875 25 28.5 25C27.7266 25 27.125 25.6875 27.125 26.375V34.625C27.125 35.3984 27.7266 36 28.5 36C29.1875 36 29.875 35.3984 29.875 34.625ZM28.5 22.25C30.7344 22.25 32.625 24.1406 32.625 26.375V34.625C32.625 36.9453 30.7344 38.75 28.5 38.75C26.1797 38.75 24.375 36.9453 24.375 34.625V26.375C24.375 24.1406 26.1797 22.25 28.5 22.25ZM40.875 20.875C40.875 20.1875 40.1875 19.5 39.5 19.5C38.7266 19.5 38.125 20.1875 38.125 20.875V34.625C38.125 35.3984 38.7266 36 39.5 36C40.1875 36 40.875 35.3984 40.875 34.625V20.875ZM35.375 20.875C35.375 18.6406 37.1797 16.75 39.5 16.75C41.7344 16.75 43.625 18.6406 43.625 20.875V34.625C43.625 36.9453 41.7344 38.75 39.5 38.75C37.1797 38.75 35.375 36.9453 35.375 34.625V20.875Z" fill="#C4AEF7"/>
</svg>
