<svg width="55" height="45" viewBox="0 0 55 45" fill="none" xmlns="http://www.w3.org/2000/svg">
<path d="M34.8047 0.585938C35.4922 0.84375 35.9219 1.61719 35.6641 2.30469L21.9141 43.5547C21.6562 44.3281 20.8828 44.6719 20.1953 44.5C19.4219 44.2422 19.0781 43.4688 19.25 42.6953L33 1.44531C33.2578 0.757812 34.0312 0.328125 34.8047 0.585938ZM14.7812 10.6406H14.6953C15.2109 11.1562 15.2109 12.1016 14.6094 12.5312L3.4375 22.5L14.6094 32.5547C15.2109 32.9844 15.2109 33.9297 14.7812 34.4453C14.2656 35.0469 13.4062 35.0469 12.8047 34.5312L0.429688 23.5312C0.171875 23.2734 0 22.9297 0 22.5C0 22.1562 0.171875 21.8125 0.429688 21.5547L12.8047 10.5547C13.4062 10.0391 14.2656 10.0391 14.7812 10.6406ZM40.2188 10.6406C40.7344 10.0391 41.5938 9.95312 42.1094 10.4688L54.4844 21.4688C54.8281 21.7266 55 22.1562 55 22.5C55 22.9297 54.8281 23.2734 54.4844 23.5312L42.1094 34.5312C41.5938 35.0469 40.7344 35.0469 40.2188 34.4453C39.7031 33.8438 39.7031 32.9844 40.3047 32.4688L51.4766 22.5L40.3047 12.5312C39.7031 12.1016 39.7031 11.1562 40.2188 10.6406Z" fill="#C4AEF7"/>
</svg>
