<svg width="27" height="20" viewBox="0 0 27 20" fill="none" xmlns="http://www.w3.org/2000/svg">
<path fill-rule="evenodd" clip-rule="evenodd" d="M5.08453 2.55024V0.637559H19.7026V4.46292H5.08453V2.55024ZM0.635567 0.637559H4.44897V2.55024V4.46292H0.635567V0.637559ZM0.635567 17.2141V5.10047H4.76675H10.4922V5.03979H20.3381V0.637559V0H19.7026H0.635567H0V0.637559V17.2141V17.8517H0.635567H10.4922V17.2141H0.635567Z" fill="#F0FF46"/>
<path d="M14.7053 19.5253L14.7823 19.113L15.4053 15.777L22.7753 7.44226L23.0197 7.16582L23.2953 7.41103L25.6706 9.52458L25.9461 9.76979L25.7017 10.0462L18.3317 18.3809L15.1042 19.3994L14.7053 19.5253ZM18.1232 18.0599L23.73 11.7166L21.3572 9.60526L15.7479 15.9463L15.1812 18.9871L18.1231 18.0576L18.1232 18.0599ZM23.9745 11.4402L25.4238 9.80115L23.0508 7.68747L21.6015 9.32652L23.9745 11.4402Z" fill="#F0FF46" stroke="#F0FF46" stroke-width="0.25"/>
</svg>
