<svg width="44" height="39" viewBox="0 0 44 39" fill="none" xmlns="http://www.w3.org/2000/svg">
<path d="M20.9688 8.75781L19.9375 7.64062L19.5078 7.21094C17.2734 4.71875 13.9219 3.51562 10.6562 4.11719C6.01562 4.97656 2.75 8.92969 2.75 13.5703V13.9141C2.75 16.6641 3.86719 19.3281 5.92969 21.2188L21.7422 35.9141C21.7422 36 21.8281 36 22 36C22.0859 36 22.1719 36 22.2578 35.9141L38.0703 21.2188C40.0469 19.3281 41.25 16.6641 41.25 13.9141V13.5703C41.25 8.92969 37.8984 4.97656 33.3438 4.11719C29.9922 3.51562 26.6406 4.71875 24.4062 7.21094L24.0625 7.64062L23.0312 8.75781C22.7734 9.01562 22.3438 9.1875 22 9.1875C21.5703 9.1875 21.2266 9.01562 20.9688 8.75781ZM23.8906 3.85938C26.7266 1.71094 30.25 0.765625 33.7734 1.45312C39.7031 2.48438 44 7.64062 44 13.5703V13.9141C44 17.0078 42.7969 19.9297 40.8203 22.25C40.5625 22.5938 40.2188 22.9375 39.875 23.1953L24.0625 37.9766C23.9766 37.9766 23.9766 38.0625 23.8906 38.1484C23.2891 38.5781 22.6875 38.75 22 38.75C21.1406 38.75 20.4531 38.4922 19.8516 37.9766L4.03906 23.1953C3.69531 22.9375 3.35156 22.5938 3.09375 22.25C1.11719 19.9297 0 17.0078 0 13.9141V13.5703C0 7.64062 4.21094 2.48438 10.1406 1.45312C13.6641 0.765625 17.1875 1.71094 20.0234 3.85938C20.5391 4.28906 21.1406 4.80469 21.5703 5.40625L21.9141 5.75L22.3438 5.40625C22.6875 4.97656 23.0312 4.54688 23.4609 4.20312C23.6328 4.11719 23.8047 3.94531 23.8906 3.85938Z" fill="#C4AEF7"/>
</svg>
