<svg width="78" height="67" viewBox="0 0 78 67" fill="none" xmlns="http://www.w3.org/2000/svg">
<path d="M68.0952 0V1.24074V9.92593H76.7619H78V12.4074H76.7619H68.0952V21.0926V22.3333H65.6191V21.0926V12.4074H56.9524H55.7143V9.92593H56.9524H65.6191V1.24074V0H68.0952ZM68.0952 44.6667V45.9074V54.5926H76.7619H78V57.0741H76.7619H68.0952V65.7593V67H65.6191V65.7593V57.0741H56.9524H55.7143V54.5926H56.9524H65.6191V45.9074V44.6667H68.0952ZM56.6583 34.8803L39.619 43.4259L31.0917 60.5016L29.7143 63.2778L28.3369 60.5016L19.8095 43.4259L2.77024 34.8803L0 33.5L2.77024 32.1197L19.8095 23.5741L28.3369 6.49838L29.7143 3.72222L31.0917 6.49838L39.619 23.5741L56.6583 32.1197L59.4286 33.5L56.6583 34.8803ZM37.406 42.3093L37.7774 41.5648L38.5202 41.1926L53.8881 33.5L38.5048 25.7919L37.7619 25.4197L37.3905 24.6752L29.7143 9.27454L22.0226 24.6907L21.6512 25.4352L20.9083 25.8074L5.54048 33.5L20.9238 41.2081L21.6667 41.5803L22.0381 42.3248L29.7143 57.7255L37.406 42.3093Z" fill="#F0FF46"/>
</svg>
