<svg width="45" height="46" viewBox="0 0 45 46" fill="none" xmlns="http://www.w3.org/2000/svg">
<path d="M31.25 1.875V7.375H36.75C37.4375 7.375 38.125 8.0625 38.125 8.75C38.125 9.52344 37.4375 10.125 36.75 10.125H31.25V15.625C31.25 16.3984 30.5625 17 29.875 17C29.1016 17 28.5 16.3984 28.5 15.625V10.125H23C22.2266 10.125 21.625 9.52344 21.625 8.75C21.625 8.0625 22.2266 7.375 23 7.375H28.5V1.875C28.5 1.1875 29.1016 0.5 29.875 0.5C30.5625 0.5 31.25 1.1875 31.25 1.875ZM14.0625 23.3594C13.7188 24.1328 12.9453 24.7344 12 24.8203L4.52344 25.9375L9.9375 31.2656C10.625 31.8672 10.8828 32.8125 10.7109 33.6719L9.42188 41.2344L16.2109 37.7109C16.9844 37.2812 17.9297 37.2812 18.7031 37.7109L25.4922 41.2344L24.2031 33.6719C24.0312 32.8125 24.2891 31.9531 24.9766 31.2656L30.3906 25.9375L22.9141 24.9062C21.9688 24.7344 21.1953 24.1328 20.8516 23.3594L17.4141 16.5703L14.0625 23.3594ZM15.6094 14.0781C16.3828 12.5312 18.5312 12.5312 19.3047 14.0781L23.2578 22.1562L32.1953 23.4453C33.9141 23.7031 34.5156 25.7656 33.3125 26.9688L26.8672 33.2422L28.4141 42.0938C28.6719 43.8125 26.9531 45.1016 25.4062 44.3281L17.5 40.1172L9.50781 44.3281C7.96094 45.1016 6.24219 43.8125 6.5 42.0938L8.04688 33.2422L1.60156 26.9688C0.398438 25.7656 1 23.7031 2.71875 23.4453L11.6562 22.1562L15.6094 14.0781ZM39.5 14.25C40.1875 14.25 40.875 14.9375 40.875 15.625V18.375H43.625C44.3125 18.375 45 19.0625 45 19.75C45 20.5234 44.3125 21.125 43.625 21.125H40.875V23.875C40.875 24.6484 40.1875 25.25 39.5 25.25C38.7266 25.25 38.125 24.6484 38.125 23.875V21.125H35.375C34.6016 21.125 34 20.5234 34 19.75C34 19.0625 34.6016 18.375 35.375 18.375H38.125V15.625C38.125 14.9375 38.7266 14.25 39.5 14.25Z" fill="#C4AEF7"/>
</svg>
