<svg width="43" height="19" viewBox="0 0 43 19" fill="none" xmlns="http://www.w3.org/2000/svg">
<g clip-path="url(#clip0_45_3297)">
<path d="M8.43443 19C7.01913 19 5.97678 18.6461 5.30738 17.9384C4.63798 17.2307 4.30328 16.3142 4.30328 15.1891V7.70344H0V4.95415H2.92623C3.51913 4.95415 3.93989 4.84527 4.18852 4.62751C4.43716 4.3916 4.56147 3.98329 4.56147 3.40258V0H7.97541V4.95415H14V7.70344H7.97541V16.2507H14V19H8.43443Z" fill="white"/>
<path d="M17 19V4.34091H20.4324V6.35795H20.6267C20.8857 5.71401 21.2527 5.16477 21.7276 4.71023C22.2241 4.23674 22.9149 4 23.8 4C24.6419 4 25.3111 4.2178 25.8076 4.65341C26.3041 5.07007 26.6279 5.66667 26.779 6.44318H26.941C27.2216 5.7803 27.6317 5.21212 28.1714 4.73863C28.7327 4.24621 29.5206 4 30.5352 4C31.7657 4 32.6508 4.38826 33.1905 5.16477C33.7302 5.94129 34 7.08712 34 8.60227V19H30.6V9.02841C30.6 8.17613 30.4597 7.57954 30.179 7.23863C29.92 6.89773 29.5206 6.72727 28.981 6.72727C28.4844 6.72727 28.0635 6.86932 27.7181 7.15341C27.3943 7.4375 27.2324 7.87311 27.2324 8.46023V19H23.8V9.02841C23.8 8.17613 23.6705 7.57954 23.4114 7.23863C23.1524 6.89773 22.753 6.72727 22.2133 6.72727C21.6952 6.72727 21.2635 6.86932 20.9181 7.15341C20.5943 7.4375 20.4324 7.87311 20.4324 8.46023V19H17Z" fill="white"/>
<rect x="37" y="13" width="6" height="6" fill="#F0FF46"/>
</g>
<defs>
<clipPath id="clip0_45_3297">
<rect width="43" height="19" fill="white"/>
</clipPath>
</defs>
</svg>
