<?xml version="1.0" encoding="UTF-8"?>
<svg id="Layer_2" data-name="Layer 2" xmlns="http://www.w3.org/2000/svg" viewBox="0 0 388.92 52.98">
  <defs>
    <style>
      .cls-1 {
        fill: #979cff;
      }

      .cls-1, .cls-2, .cls-3, .cls-4, .cls-5, .cls-6 {
        stroke-width: 0px;
      }

      .cls-2 {
        fill: #787ad5;
      }

      .cls-3 {
        fill: #dee2ff;
      }

      .cls-4 {
        fill: #6062ad;
      }

      .cls-5 {
        fill: #c5cbff;
      }

      .cls-6 {
        fill: #aeb4ff;
      }
    </style>
  </defs>
  <g id="Layer_1-2" data-name="Layer 1">
    <g>
      <path class="cls-3" d="m13.08,16.22H0v-5.71h13.08V0h6.46v10.51h13.08v5.71h-13.08v35.93h-6.46V16.22Z"/>
      <path class="cls-5" d="m36.43,42.3v-22.19c0-7.12,4.22-10.1,11.51-10.1h4.97c7.37,0,11.59,2.98,11.59,10.1v12.67h-21.69v8.11c0,4.39,1.08,5.88,5.71,5.88h3.81c4.72,0,5.8-1.49,5.8-5.88v-1.82h6.37v3.23c0,7.2-4.22,10.18-11.59,10.18h-4.97c-7.29,0-11.51-2.98-11.51-10.18Zm21.69-14.74v-6.12c0-4.39-1.08-5.88-5.8-5.88h-3.81c-4.63,0-5.71,1.49-5.71,5.88v6.12h15.32Z"/>
      <path class="cls-6" d="m70.54,42.3v-22.19c0-7.12,4.22-10.1,11.51-10.1h4.97c7.37,0,11.59,2.98,11.59,10.1v12.67h-21.69v8.11c0,4.39,1.08,5.88,5.71,5.88h3.81c4.72,0,5.79-1.49,5.79-5.88v-1.82h6.38v3.23c0,7.2-4.22,10.18-11.59,10.18h-4.97c-7.29,0-11.51-2.98-11.51-10.18Zm21.69-14.74v-6.12c0-4.39-1.07-5.88-5.79-5.88h-3.81c-4.63,0-5.71,1.49-5.71,5.88v6.12h15.31Z"/>
      <path class="cls-1" d="m104.72,10.51h6.46v4.14s2.82-1.74,2.82-1.74c3.97-2.57,6.54-3.23,9.27-3.23,6.29,0,10.02,3.81,10.02,11.26v31.21h-6.46v-30.13c0-4.06-1.24-6.54-4.97-6.54-2.07,0-3.97.83-6.37,2.24l-4.31,2.73v31.71h-6.46V10.51Z"/>
      <path class="cls-1" d="m137.26,41.81v-3.97c0-7.03,4.14-10.02,11.51-10.02h10.43v-6.37c0-4.22-1.24-5.8-5.8-5.8h-3.15c-4.55,0-5.8,1.57-5.8,5.8v.91h-6.38v-2.24c0-7.12,4.22-10.1,11.59-10.1h4.39c7.37,0,11.59,2.98,11.59,10.1v21.28c0,4.06,1.24,5.38,5.21,5.38v5.71c-5.05,0-8.94-1.24-10.6-5.22,0,0-3.89,2.48-3.89,2.48-3.97,2.57-6.29,3.23-9.02,3.23-6.38,0-10.1-3.89-10.1-11.18Zm17.55,3.23l4.39-2.65v-9.36h-9.77c-4.55,0-5.8,1.66-5.8,5.88v2.07c0,3.81,1.16,6.38,4.8,6.38,2.15,0,4.06-.83,6.38-2.32Z"/>
      <path class="cls-3" d="m185.03,10.51h5.8v2.73l.58-.5c3.06-2.4,5.38-3.06,7.62-3.06,3.31,0,5.72,1.41,6.87,4.22l1.57-1.24c3.06-2.4,5.38-2.98,7.62-2.98,5.05,0,7.78,3.06,7.78,9.44v33.03h-5.8V19.87c0-3.23-.75-5.21-3.48-5.21-1.74,0-3.14.83-4.8,2.15l-1.99,1.49v33.86h-5.8V19.87c0-3.23-.74-5.21-3.39-5.21-1.74,0-3.14.83-4.89,2.15l-1.9,1.49v33.86h-5.8V10.51Z"/>
      <path class="cls-5" d="m226.14,42.8v-22.19c0-7.12,4.22-10.1,11.59-10.1h5.8c7.36,0,11.59,2.98,11.59,10.1v22.19c0,7.2-4.23,10.18-11.59,10.18h-5.8c-7.37,0-11.59-2.98-11.59-10.18Zm16.72,4.39c4.72,0,5.8-1.41,5.8-5.8v-19.29c0-4.39-1.08-5.88-5.8-5.88h-4.47c-4.72,0-5.8,1.49-5.8,5.88v19.29c0,4.39,1.08,5.8,5.8,5.8h4.47Z"/>
      <path class="cls-6" d="m258.21,10.51h6.45s0,4.14,0,4.14c0,0,2.81-1.74,2.81-1.74,3.97-2.57,6.54-3.23,9.27-3.23,6.29,0,10.02,3.81,10.02,11.26v31.21h-6.45v-30.13c0-4.06-1.24-6.54-4.97-6.54-2.07,0-3.97.83-6.38,2.24l-4.3,2.73v31.71h-6.45V10.51Z"/>
      <path class="cls-1" d="m290.74,41.81v-3.97c0-7.03,4.14-10.02,11.51-10.02h10.43v-6.37c0-4.22-1.24-5.8-5.8-5.8h-3.14c-4.56,0-5.8,1.57-5.8,5.8v.91h-6.38v-2.24c0-7.12,4.22-10.1,11.59-10.1h4.39c7.37,0,11.59,2.98,11.59,10.1v21.28c0,4.06,1.24,5.38,5.21,5.38v5.71c-5.05,0-8.94-1.24-10.6-5.22,0,0-3.89,2.48-3.89,2.48-3.97,2.57-6.29,3.23-9.02,3.23-6.38,0-10.1-3.89-10.1-11.18Zm17.55,3.23l4.39-2.65v-9.36h-9.76c-4.56,0-5.8,1.66-5.8,5.88v2.07c0,3.81,1.16,6.38,4.8,6.38,2.15,0,4.05-.83,6.37-2.32Z"/>
      <path class="cls-2" d="m326.58,42.3v-22.19c0-7.12,4.23-10.1,11.59-10.1h4.8c7.29,0,11.51,2.98,11.51,10.1v4.64h-6.45v-3.15c0-4.39-1.08-5.88-5.8-5.88h-3.39c-4.72,0-5.8,1.49-5.8,5.88v19.29c0,4.39,1.08,5.8,5.8,5.8h3.39c4.72,0,5.8-1.41,5.8-5.8v-3.23h6.45v4.64c0,7.2-4.22,10.18-11.51,10.18h-4.8c-7.36,0-11.59-2.98-11.59-10.18Z"/>
      <path class="cls-4" d="m359.95,42.3v-22.19c0-7.12,4.22-10.1,11.59-10.1h5.8c7.36,0,11.59,2.98,11.59,10.1v22.19c0,7.2-4.23,10.18-11.59,10.18h-5.8c-7.37,0-11.59-2.98-11.59-10.18Zm16.72,4.39c4.72,0,5.8-1.41,5.8-5.8v-19.29c0-4.39-1.08-5.88-5.8-5.88h-4.47c-4.72,0-5.8,1.49-5.8,5.88v19.29c0,4.39,1.08,5.8,5.8,5.8h4.47Z"/>
    </g>
  </g>
</svg>