<svg width="20" height="22" viewBox="0 0 20 22" fill="none" xmlns="http://www.w3.org/2000/svg">
<path d="M4.72528 0.6875V4.8125H0.675039V0.6875H4.72528ZM0.675039 0H0V0.6875V4.8125V5.5H0.675039H2.36264V15.125V15.8125V16.5H0.675039H0V17.1875V21.3125V22H0.675039H4.72528H5.40031V21.3125V17.1875V16.5H4.72528H3.03768V15.8125V15.125C3.03768 13.0367 4.69996 11.3438 6.75039 11.3438H13.2496C15.6713 11.3438 17.6374 9.34141 17.6374 6.875V5.5H19.325H20V4.8125V0.6875V0H19.325H15.2747H14.5997V0.6875V4.8125V5.5H15.2747H16.9623V6.875C16.9623 8.96328 15.3 10.6563 13.2496 10.6563H6.75039C5.18515 10.6563 3.81397 11.4898 3.03768 12.7402V5.5H4.72528H5.40031V4.8125V0.6875V0H4.72528H0.675039ZM15.2747 0.6875H19.325V4.8125H15.2747V0.6875ZM0.675039 17.1875H4.72528V21.3125H0.675039V17.1875Z" fill="#F0FF46"/>
</svg>
