<svg width="26" height="22" viewBox="0 0 26 22" fill="none" xmlns="http://www.w3.org/2000/svg">
<g clip-path="url(#clip0_72_3932)">
<path d="M24.875 1.15625H7.375V4.47852C7.17188 4.4498 6.96094 4.4375 6.75 4.4375V1.15625V0.5H7.375H24.875H25.5V1.15625V16.9063V17.5625H24.875H13.1797L12.9922 16.9063H24.875V1.15625ZM16.75 5.09375H17.0625H20.8125H21.125V5.42188V9.35938V9.6875H20.5V9.35938V6.21348L15.7227 11.2338L15.5 11.4676L15.2773 11.2338L12.1523 7.95254L11.9297 7.71875L12.375 7.25527L12.5977 7.48906L15.5 10.5365L20.0586 5.75H17.0625H16.75V5.09375ZM6.75 12.9688C7.5788 12.9688 8.37366 12.623 8.95971 12.0077C9.54576 11.3923 9.875 10.5577 9.875 9.6875C9.875 8.81726 9.54576 7.98266 8.95971 7.36731C8.37366 6.75195 7.5788 6.40625 6.75 6.40625C5.9212 6.40625 5.12634 6.75195 4.54029 7.36731C3.95424 7.98266 3.625 8.81726 3.625 9.6875C3.625 10.5577 3.95424 11.3923 4.54029 12.0077C5.12634 12.623 5.9212 12.9688 6.75 12.9688ZM6.75 5.75C7.24246 5.75 7.73009 5.85185 8.18506 6.04972C8.64003 6.2476 9.05343 6.53764 9.40165 6.90327C9.74987 7.2689 10.0261 7.70296 10.2145 8.18068C10.403 8.6584 10.5 9.17042 10.5 9.6875C10.5 10.2046 10.403 10.7166 10.2145 11.1943C10.0261 11.672 9.74987 12.1061 9.40165 12.4717C9.05343 12.8374 8.64003 13.1274 8.18506 13.3253C7.73009 13.5232 7.24246 13.625 6.75 13.625C6.25754 13.625 5.76991 13.5232 5.31494 13.3253C4.85997 13.1274 4.44657 12.8374 4.09835 12.4717C3.75013 12.1061 3.47391 11.672 3.28545 11.1943C3.097 10.7166 3 10.2046 3 9.6875C3 9.17042 3.097 8.6584 3.28545 8.18068C3.47391 7.70296 3.75013 7.2689 4.09835 6.90327C4.44657 6.53764 4.85997 6.2476 5.31494 6.04972C5.76991 5.85185 6.25754 5.75 6.75 5.75ZM2.83984 15.5938L1.33984 20.8438H12.1602L10.6602 15.5938H2.83984ZM11.125 14.9375L12.8125 20.8438L13 21.5H12.3477H1.15234H0.5L0.6875 20.8438L2.375 14.9375H11.125Z" fill="#F0FF46"/>
</g>
<defs>
<clipPath id="clip0_72_3932">
<rect width="25" height="21" fill="white" transform="translate(0.5 0.5)"/>
</clipPath>
</defs>
</svg>
