<svg width="45" height="50" viewBox="0 0 45 50" fill="none" xmlns="http://www.w3.org/2000/svg">
<path d="M10.6319 1.5625V10.9375H1.51884V1.5625H10.6319ZM1.51884 0H0V1.5625V10.9375V12.5H1.51884H5.31593V34.375V35.9375V37.5H1.51884H0V39.0625V48.4375V50H1.51884H10.6319H12.1507V48.4375V39.0625V37.5H10.6319H6.83477V35.9375V34.375C6.83477 29.6289 10.5749 25.7812 15.1884 25.7812H29.8116C35.2605 25.7812 39.6841 21.2305 39.6841 15.625V12.5H43.4812H45V10.9375V1.5625V0H43.4812H34.3681H32.8493V1.5625V10.9375V12.5H34.3681H38.1652V15.625C38.1652 20.3711 34.4251 24.2187 29.8116 24.2187H15.1884C11.6666 24.2187 8.58144 26.1133 6.83477 28.9551V12.5H10.6319H12.1507V10.9375V1.5625V0H10.6319H1.51884ZM34.3681 1.5625H43.4812V10.9375H34.3681V1.5625ZM1.51884 39.0625H10.6319V48.4375H1.51884V39.0625Z" fill="#F0FF46"/>
</svg>
