<svg width="74" height="59" viewBox="0 0 74 59" fill="none" xmlns="http://www.w3.org/2000/svg">
<g clip-path="url(#clip0_72_3810)">
<path fill-rule="evenodd" clip-rule="evenodd" d="M14.5632 10.3104V4.84921H56.4324V15.7716H14.5632V10.3104ZM1.8204 4.84921H12.7428V10.3104V15.7716H1.8204V4.84921ZM1.8204 52.1796V17.592H13.653H30.0508V17.4187H58.2528V4.84921V3.02881H56.4324H1.8204H0V4.84921V52.1796V54H1.8204H30.0508V52.1796H1.8204Z" fill="#F0FF46"/>
<path d="M14.5632 4.84921V4.34921H14.0632V4.84921H14.5632ZM56.4324 4.84921H56.9324V4.34921H56.4324V4.84921ZM56.4324 15.7716V16.2716H56.9324V15.7716H56.4324ZM14.5632 15.7716H14.0632V16.2716H14.5632V15.7716ZM12.7428 4.84921H13.2428V4.34921H12.7428V4.84921ZM1.8204 4.84921V4.34921H1.3204V4.84921H1.8204ZM12.7428 15.7716V16.2716H13.2428V15.7716H12.7428ZM1.8204 15.7716H1.3204V16.2716H1.8204V15.7716ZM1.8204 17.592V17.092H1.3204V17.592H1.8204ZM1.8204 52.1796H1.3204V52.6796H1.8204V52.1796ZM30.0508 17.592V18.092H30.5508V17.592H30.0508ZM30.0508 17.4187V16.9187H29.5508V17.4187H30.0508ZM58.2528 17.4187V17.9187H58.7528V17.4187H58.2528ZM58.2528 3.02881H58.7528V2.52881H58.2528V3.02881ZM0 3.02881V2.52881H-0.5V3.02881H0ZM0 54H-0.5V54.5H0V54ZM30.0508 54V54.5H30.5508V54H30.0508ZM30.0508 52.1796H30.5508V51.6796H30.0508V52.1796ZM14.0632 4.84921V10.3104H15.0632V4.84921H14.0632ZM56.4324 4.34921H14.5632V5.34921H56.4324V4.34921ZM56.9324 15.7716V4.84921H55.9324V15.7716H56.9324ZM14.5632 16.2716H56.4324V15.2716H14.5632V16.2716ZM14.0632 10.3104V15.7716H15.0632V10.3104H14.0632ZM12.7428 4.34921H1.8204V5.34921H12.7428V4.34921ZM13.2428 10.3104V4.84921H12.2428V10.3104H13.2428ZM13.2428 15.7716V10.3104H12.2428V15.7716H13.2428ZM1.8204 16.2716H12.7428V15.2716H1.8204V16.2716ZM1.3204 4.84921V15.7716H2.3204V4.84921H1.3204ZM1.3204 17.592V52.1796H2.3204V17.592H1.3204ZM13.653 17.092H1.8204V18.092H13.653V17.092ZM30.0508 17.092H13.653V18.092H30.0508V17.092ZM30.5508 17.592V17.4187H29.5508V17.592H30.5508ZM30.0508 17.9187H58.2528V16.9187H30.0508V17.9187ZM57.7528 4.84921V17.4187H58.7528V4.84921H57.7528ZM57.7528 3.02881V4.84921H58.7528V3.02881H57.7528ZM56.4324 3.52881H58.2528V2.52881H56.4324V3.52881ZM1.8204 3.52881H56.4324V2.52881H1.8204V3.52881ZM0 3.52881H1.8204V2.52881H0V3.52881ZM0.5 4.84921V3.02881H-0.5V4.84921H0.5ZM0.5 52.1796V4.84921H-0.5V52.1796H0.5ZM0.5 54V52.1796H-0.5V54H0.5ZM1.8204 53.5H0V54.5H1.8204V53.5ZM30.0508 53.5H1.8204V54.5H30.0508V53.5ZM30.5508 54V52.1796H29.5508V54H30.5508ZM1.8204 52.6796H30.0508V51.6796H1.8204V52.6796Z" fill="#F0FF46"/>
<path d="M37.0202 55.7631L37.2407 54.5858L39.025 45.0606L60.1342 21.2629L60.8343 20.4736L61.6236 21.1737L68.427 27.2084L69.2163 27.9086L68.5162 28.6979L47.407 52.4956L38.1627 55.4037L37.0202 55.7631ZM46.8097 51.579L62.8689 33.4674L56.0726 27.4388L40.0064 45.5442L38.3832 54.2264L46.8093 51.5724L46.8097 51.579ZM63.5691 32.6781L67.7203 27.9981L60.9235 21.963L56.7723 26.6429L63.5691 32.6781Z" fill="#F0FF46" stroke="#F0FF46" stroke-width="1.25"/>
</g>
<defs>
<clipPath id="clip0_72_3810">
<rect width="74" height="59" fill="white"/>
</clipPath>
</defs>
</svg>
