<svg width="25" height="20" viewBox="0 0 25 20" fill="none" xmlns="http://www.w3.org/2000/svg">
<path fill-rule="evenodd" clip-rule="evenodd" d="M5.08453 3.16157V1.24889H19.7026V5.07424H5.08453V3.16157ZM0.635567 1.24889H4.44897V3.16157V5.07424H0.635567V1.24889ZM0.635567 17.8254V5.7118H4.76675H10.4922V5.65112H20.3381V1.24889V0.611328H19.7026H0.635567H0V1.24889V17.8254V18.463H0.635567H10.4922V17.8254H0.635567Z" fill="#F0FF46"/>
<path d="M12.9241 19.0805L13.0011 18.6681L13.624 15.3321L20.994 6.99744L21.2384 6.721L21.514 6.96621L23.8893 9.07976L24.1649 9.32496L23.9204 9.6014L16.5505 17.9361L13.323 18.9546L12.9241 19.0805ZM16.342 17.6151L21.9488 11.2718L19.5759 9.16044L13.9667 15.5015L13.4 18.5423L16.3418 17.6127L16.342 17.6151ZM22.1932 10.9954L23.6426 9.35633L21.2696 7.24264L19.8202 8.88169L22.1932 10.9954Z" fill="#F0FF46" stroke="#F0FF46" stroke-width="0.25"/>
</svg>
