<svg width="67" height="52" viewBox="0 0 67 52" fill="none" xmlns="http://www.w3.org/2000/svg">
<path fill-rule="evenodd" clip-rule="evenodd" d="M2.59222 45.0816V14.0612H27.2849V13.9058H51.9509V1H1V46.7142H27.2849V45.0816H2.59222ZM13.7377 2.63265H50.3587V12.4286H13.7377V2.63265ZM2.59222 2.63265H12.1455V12.4286H2.59222V2.63265Z" fill="#F0FF46"/>
<path d="M37.8396 51L39.5932 41.4014L58.6687 19.3501L66 26.0183L46.9244 48.0695L37.8396 51ZM46.4021 47.2474L60.4483 31.0038L54.5038 25.597L40.4515 41.8351L39.0318 49.6218L46.4017 47.2415L46.4021 47.2474ZM61.0606 30.2959L64.6915 26.0986L58.7467 20.6859L55.1158 24.8832L61.0606 30.2959Z" fill="#F0FF46"/>
<path fill-rule="evenodd" clip-rule="evenodd" d="M2.59222 45.0816V14.0612H27.2849V13.9058H51.9509V1H1V46.7142H27.2849V45.0816H2.59222ZM13.7377 2.63265H50.3587V12.4286H13.7377V2.63265ZM2.59222 2.63265H12.1455V12.4286H2.59222V2.63265Z" stroke="#F0FF46" stroke-width="0.25"/>
<path d="M37.8396 51L39.5932 41.4014L58.6687 19.3501L66 26.0183L46.9244 48.0695L37.8396 51ZM46.4021 47.2474L60.4483 31.0038L54.5038 25.597L40.4515 41.8351L39.0318 49.6218L46.4017 47.2415L46.4021 47.2474ZM61.0606 30.2959L64.6915 26.0986L58.7467 20.6859L55.1158 24.8832L61.0606 30.2959Z" stroke="#F0FF46" stroke-width="0.25"/>
</svg>
