<svg width="161" height="12" viewBox="0 0 161 12" fill="none" xmlns="http://www.w3.org/2000/svg">
<path d="M153.5 11.68V0H155.228V2.88L155.212 4.56H155.628L155.212 4.96C155.212 4.256 155.42 3.70667 155.836 3.312C156.252 2.91733 156.828 2.72 157.564 2.72C158.439 2.72 159.137 3.00267 159.66 3.568C160.183 4.12267 160.444 4.87467 160.444 5.824V11.68H158.716V6.016C158.716 5.44 158.561 4.992 158.252 4.672C157.943 4.352 157.521 4.192 156.988 4.192C156.444 4.192 156.012 4.36267 155.692 4.704C155.383 5.03467 155.228 5.50933 155.228 6.128V11.68H153.5Z" fill="#EA64FF"/>
<path d="M147.426 11.8401C146.701 11.8401 146.061 11.7068 145.506 11.4401C144.962 11.1628 144.541 10.7681 144.242 10.2561C143.954 9.73343 143.81 9.12543 143.81 8.43209V6.12809C143.81 5.42409 143.954 4.81609 144.242 4.30409C144.541 3.79209 144.962 3.40276 145.506 3.13609C146.061 2.85876 146.701 2.72009 147.426 2.72009C148.482 2.72009 149.33 2.99743 149.97 3.55209C150.61 4.10676 150.946 4.86409 150.978 5.82409H149.25C149.218 5.32276 149.042 4.93343 148.722 4.65609C148.402 4.37876 147.97 4.24009 147.426 4.24009C146.84 4.24009 146.376 4.40543 146.034 4.73609C145.693 5.05609 145.522 5.51476 145.522 6.11209V8.43209C145.522 9.02943 145.693 9.49343 146.034 9.82409C146.376 10.1548 146.84 10.3201 147.426 10.3201C147.97 10.3201 148.402 10.1814 148.722 9.90409C149.042 9.62676 149.218 9.23743 149.25 8.73609H150.978C150.946 9.69609 150.61 10.4534 149.97 11.0081C149.33 11.5628 148.482 11.8401 147.426 11.8401Z" fill="#EA64FF"/>
<path d="M137.768 11.8401C137.054 11.8401 136.424 11.7014 135.88 11.4241C135.347 11.1361 134.936 10.7361 134.648 10.2241C134.36 9.71209 134.216 9.11476 134.216 8.43209V6.12809C134.216 5.43476 134.36 4.83743 134.648 4.33609C134.936 3.82409 135.347 3.42943 135.88 3.15209C136.424 2.86409 137.054 2.72009 137.768 2.72009C138.494 2.72009 139.123 2.86409 139.656 3.15209C140.19 3.42943 140.6 3.82409 140.888 4.33609C141.176 4.83743 141.32 5.43476 141.32 6.12809V7.69609H135.88V8.43209C135.88 9.08276 136.04 9.57876 136.36 9.92009C136.691 10.2614 137.166 10.4321 137.784 10.4321C138.286 10.4321 138.691 10.3468 139 10.1761C139.31 9.99476 139.502 9.73343 139.576 9.39209H141.288C141.16 10.1388 140.776 10.7361 140.136 11.1841C139.496 11.6214 138.707 11.8401 137.768 11.8401ZM139.656 6.65609V6.11209C139.656 5.47209 139.496 4.97609 139.176 4.62409C138.856 4.27209 138.387 4.09609 137.768 4.09609C137.16 4.09609 136.691 4.27209 136.36 4.62409C136.04 4.97609 135.88 5.47743 135.88 6.12809V6.52809L139.784 6.51209L139.656 6.65609Z" fill="#EA64FF"/>
<path d="M129.135 11.68C128.335 11.68 127.711 11.4614 127.263 11.024C126.815 10.5867 126.591 9.97869 126.591 9.20003V4.44802H124.159V2.88002H126.591V0.400024H128.319V2.88002H131.759V4.44802H128.319V9.20003C128.319 9.80803 128.612 10.112 129.199 10.112H131.599V11.68H129.135Z" fill="#EA64FF"/>
<path d="M107.595 11.68V5.376H105.099V3.808H107.595V2.384C107.595 1.648 107.83 1.06667 108.299 0.639999C108.769 0.213333 109.409 0 110.219 0H112.795V1.536H110.251C109.953 1.536 109.718 1.61067 109.547 1.76C109.387 1.90933 109.307 2.12267 109.307 2.4V3.808H112.795V5.376H109.307V11.68H107.595Z" fill="#EA64FF"/>
<path d="M99.3935 11.8241C98.6682 11.8241 98.0388 11.6854 97.5055 11.4081C96.9722 11.1308 96.5615 10.7361 96.2735 10.2241C95.9855 9.71208 95.8415 9.10942 95.8415 8.41608V6.14408C95.8415 5.44008 95.9855 4.83742 96.2735 4.33608C96.5615 3.82408 96.9722 3.42942 97.5055 3.15208C98.0388 2.87475 98.6682 2.73608 99.3935 2.73608C100.119 2.73608 100.748 2.87475 101.281 3.15208C101.815 3.42942 102.225 3.82408 102.513 4.33608C102.801 4.83742 102.945 5.44008 102.945 6.14408V8.41608C102.945 9.10942 102.801 9.71208 102.513 10.2241C102.225 10.7361 101.815 11.1308 101.281 11.4081C100.748 11.6854 100.119 11.8241 99.3935 11.8241ZM99.3935 10.3041C99.9802 10.3041 100.433 10.1441 100.753 9.82408C101.073 9.49342 101.233 9.02408 101.233 8.41608V6.14408C101.233 5.52542 101.073 5.05608 100.753 4.73608C100.433 4.41608 99.9802 4.25608 99.3935 4.25608C98.8175 4.25608 98.3642 4.41608 98.0335 4.73608C97.7135 5.05608 97.5535 5.52542 97.5535 6.14408V8.41608C97.5535 9.02408 97.7135 9.49342 98.0335 9.82408C98.3642 10.1441 98.8175 10.3041 99.3935 10.3041Z" fill="#EA64FF"/>
<path d="M81.166 11.68C80.366 11.68 79.742 11.4614 79.294 11.024C78.846 10.5867 78.622 9.97869 78.622 9.20003V4.44802H76.19V2.88002H78.622V0.400024H80.35V2.88002H83.79V4.44802H80.35V9.20003C80.35 9.80803 80.6433 10.112 81.23 10.112H83.63V11.68H81.166Z" fill="#EA64FF"/>
<path d="M69.7322 11.8401C68.8149 11.8401 68.0896 11.6054 67.5563 11.1361C67.0336 10.6561 66.7722 10.0054 66.7722 9.18409C66.7722 8.35209 67.0496 7.70143 67.6042 7.23209C68.1696 6.75209 68.9429 6.51209 69.9242 6.51209H72.3722V5.69609C72.3722 5.21609 72.2229 4.84276 71.9242 4.57609C71.6256 4.30943 71.2042 4.17609 70.6602 4.17609C70.1802 4.17609 69.7803 4.28276 69.4603 4.49609C69.1403 4.69876 68.9536 4.97076 68.9002 5.31209H67.2042C67.3002 4.52276 67.6629 3.89343 68.2923 3.42409C68.9323 2.95476 69.7376 2.72009 70.7083 2.72009C71.7536 2.72009 72.5802 2.98676 73.1882 3.52009C73.7962 4.04276 74.1003 4.75743 74.1003 5.66409V11.6801H72.4202V10.0641H72.1322L72.4202 9.74409C72.4202 10.3841 72.1749 10.8961 71.6842 11.2801C71.1936 11.6534 70.5429 11.8401 69.7322 11.8401ZM70.2442 10.5121C70.8629 10.5121 71.3696 10.3574 71.7643 10.0481C72.1696 9.72809 72.3722 9.32276 72.3722 8.83209V7.68009H69.9562C69.5082 7.68009 69.1509 7.80276 68.8842 8.04809C68.6282 8.29343 68.5003 8.62943 68.5003 9.05609C68.5003 9.50409 68.6549 9.86143 68.9642 10.1281C69.2736 10.3841 69.7002 10.5121 70.2442 10.5121Z" fill="#EA64FF"/>
<path d="M61.0185 11.8401C60.3038 11.8401 59.6745 11.7014 59.1305 11.4241C58.5972 11.1361 58.1865 10.7361 57.8985 10.2241C57.6105 9.71209 57.4665 9.11476 57.4665 8.43209V6.12809C57.4665 5.43476 57.6105 4.83743 57.8985 4.33609C58.1865 3.82409 58.5972 3.42943 59.1305 3.15209C59.6745 2.86409 60.3038 2.72009 61.0185 2.72009C61.7438 2.72009 62.3732 2.86409 62.9065 3.15209C63.4398 3.42943 63.8505 3.82409 64.1385 4.33609C64.4265 4.83743 64.5705 5.43476 64.5705 6.12809V7.69609H59.1305V8.43209C59.1305 9.08276 59.2905 9.57876 59.6105 9.92009C59.9412 10.2614 60.4158 10.4321 61.0345 10.4321C61.5358 10.4321 61.9412 10.3468 62.2505 10.1761C62.5598 9.99476 62.7518 9.73343 62.8265 9.39209H64.5385C64.4105 10.1388 64.0265 10.7361 63.3865 11.1841C62.7465 11.6214 61.9572 11.8401 61.0185 11.8401ZM62.9065 6.65609V6.11209C62.9065 5.47209 62.7465 4.97609 62.4265 4.62409C62.1065 4.27209 61.6372 4.09609 61.0185 4.09609C60.4105 4.09609 59.9412 4.27209 59.6105 4.62409C59.2905 4.97609 59.1305 5.47743 59.1305 6.12809V6.52809L63.0345 6.51209L62.9065 6.65609Z" fill="#EA64FF"/>
<path d="M52.0487 11.84C51.3234 11.84 50.7474 11.6427 50.3207 11.248C49.8941 10.8427 49.6807 10.2933 49.6807 9.6L50.0487 10H49.6807V11.68H47.9688V0H49.6967V2.512L49.6488 4.56H50.0487L49.6807 4.96C49.6807 4.26667 49.8941 3.72267 50.3207 3.328C50.7581 2.92267 51.3341 2.72 52.0487 2.72C52.9341 2.72 53.6434 3.01867 54.1768 3.616C54.7101 4.21333 54.9767 5.024 54.9767 6.048V8.528C54.9767 9.54133 54.7101 10.3467 54.1768 10.944C53.6434 11.5413 52.9341 11.84 52.0487 11.84ZM51.4567 10.336C52.0221 10.336 52.4647 10.176 52.7847 9.856C53.1047 9.52533 53.2647 9.05067 53.2647 8.432V6.128C53.2647 5.50933 53.1047 5.04 52.7847 4.72C52.4647 4.38933 52.0221 4.224 51.4567 4.224C50.9127 4.224 50.4807 4.39467 50.1607 4.736C49.8514 5.06667 49.6967 5.53067 49.6967 6.128V8.432C49.6967 9.02933 49.8514 9.49867 50.1607 9.84C50.4807 10.1707 50.9127 10.336 51.4567 10.336Z" fill="#EA64FF"/>
<path d="M42.791 11.68C41.991 11.68 41.367 11.4614 40.919 11.024C40.471 10.5867 40.247 9.97869 40.247 9.20003V4.44802H37.815V2.88002H40.247V0.400024H41.975V2.88002H45.415V4.44802H41.975V9.20003C41.975 9.80803 42.2683 10.112 42.855 10.112H45.255V11.68H42.791Z" fill="#EA64FF"/>
<path d="M29.0692 11.6801V2.88009H30.7332V4.56009H31.1492L30.6212 5.60009C30.6212 4.65076 30.8292 3.93609 31.2452 3.45609C31.6612 2.96543 32.2799 2.72009 33.1012 2.72009C34.0399 2.72009 34.7812 3.01343 35.3252 3.60009C35.8799 4.17609 36.1572 4.97076 36.1572 5.98409V6.57609H34.3812V6.12809C34.3812 5.49876 34.2212 5.01876 33.9012 4.68809C33.5919 4.34676 33.1546 4.17609 32.5892 4.17609C32.0239 4.17609 31.5812 4.34676 31.2612 4.68809C30.9519 5.02943 30.7972 5.50943 30.7972 6.12809V11.6801H29.0692Z" fill="#EA64FF"/>
<path d="M21.7635 11.8401C20.8461 11.8401 20.1208 11.6054 19.5875 11.1361C19.0648 10.6561 18.8035 10.0054 18.8035 9.18409C18.8035 8.35209 19.0808 7.70143 19.6355 7.23209C20.2008 6.75209 20.9741 6.51209 21.9555 6.51209H24.4035V5.69609C24.4035 5.21609 24.2541 4.84276 23.9555 4.57609C23.6568 4.30943 23.2355 4.17609 22.6915 4.17609C22.2115 4.17609 21.8115 4.28276 21.4915 4.49609C21.1715 4.69876 20.9848 4.97076 20.9315 5.31209H19.2355C19.3315 4.52276 19.6941 3.89343 20.3235 3.42409C20.9635 2.95476 21.7688 2.72009 22.7395 2.72009C23.7848 2.72009 24.6115 2.98676 25.2195 3.52009C25.8275 4.04276 26.1315 4.75743 26.1315 5.66409V11.6801H24.4515V10.0641H24.1635L24.4515 9.74409C24.4515 10.3841 24.2061 10.8961 23.7155 11.2801C23.2248 11.6534 22.5741 11.8401 21.7635 11.8401ZM22.2755 10.5121C22.8941 10.5121 23.4008 10.3574 23.7955 10.0481C24.2008 9.72809 24.4035 9.32276 24.4035 8.83209V7.68009H21.9875C21.5395 7.68009 21.1821 7.80276 20.9155 8.04809C20.6595 8.29343 20.5315 8.62943 20.5315 9.05609C20.5315 9.50409 20.6861 9.86143 20.9955 10.1281C21.3048 10.3841 21.7315 10.5121 22.2755 10.5121Z" fill="#EA64FF"/>
<path d="M13.0497 11.8401C12.3351 11.8401 11.7057 11.7014 11.1617 11.4241C10.6284 11.1361 10.2177 10.7361 9.92974 10.2241C9.64174 9.71209 9.49774 9.11476 9.49774 8.43209V6.12809C9.49774 5.43476 9.64174 4.83743 9.92974 4.33609C10.2177 3.82409 10.6284 3.42943 11.1617 3.15209C11.7057 2.86409 12.3351 2.72009 13.0497 2.72009C13.7751 2.72009 14.4044 2.86409 14.9377 3.15209C15.4711 3.42943 15.8817 3.82409 16.1697 4.33609C16.4577 4.83743 16.6017 5.43476 16.6017 6.12809V7.69609H11.1617V8.43209C11.1617 9.08276 11.3217 9.57876 11.6417 9.92009C11.9724 10.2614 12.4471 10.4321 13.0657 10.4321C13.5671 10.4321 13.9724 10.3468 14.2817 10.1761C14.5911 9.99476 14.7831 9.73343 14.8577 9.39209H16.5697C16.4417 10.1388 16.0577 10.7361 15.4177 11.1841C14.7777 11.6214 13.9884 11.8401 13.0497 11.8401ZM14.9377 6.65609V6.11209C14.9377 5.47209 14.7777 4.97609 14.4577 4.62409C14.1377 4.27209 13.6684 4.09609 13.0497 4.09609C12.4417 4.09609 11.9724 4.27209 11.6417 4.62409C11.3217 4.97609 11.1617 5.47743 11.1617 6.12809V6.52809L15.0657 6.51209L14.9377 6.65609Z" fill="#EA64FF"/>
<path d="M0 11.68V0H1.728V2.88L1.712 4.56H2.128L1.712 4.96C1.712 4.256 1.92 3.70667 2.336 3.312C2.752 2.91733 3.328 2.72 4.064 2.72C4.93867 2.72 5.63733 3.00267 6.16 3.568C6.68267 4.12267 6.944 4.87467 6.944 5.824V11.68H5.216V6.016C5.216 5.44 5.06133 4.992 4.752 4.672C4.44267 4.352 4.02133 4.192 3.488 4.192C2.944 4.192 2.512 4.36267 2.192 4.704C1.88267 5.03467 1.728 5.50933 1.728 6.128V11.68H0Z" fill="#EA64FF"/>
</svg>
