<svg width="290" height="123" viewBox="0 0 290 123" fill="none" xmlns="http://www.w3.org/2000/svg">
<g clip-path="url(#clip0_4_2)">
<path d="M289.27 58.92C289.07 57.98 287.95 57.34 286.74 57.34H247.48C242.55 57.34 238.11 59.7 236.27 63.33L222.19 91.15L194.96 1.46001C194.69 0.600013 193.69 -0.0199875 192.54 1.25235e-05C191.39 0.0200125 190.42 0.670012 190.21 1.55001L163.28 111.52L146.18 57.48C146.16 57.06 146.11 56.86 146.03 57.02L126.28 91.14L99.06 1.46001C98.79 0.600013 97.79 -0.0199875 96.64 1.25235e-05C95.49 0.0200125 94.52 0.670012 94.31 1.55001L67.38 111.52L52.51 64.55C51.18 60.3 46.35 57.31 40.78 57.31H2.42C1.09 57.31 0 58.17 0 59.22C0 60.27 1.09 61.13 2.42 61.13H40.8C44.12 61.13 47.03 62.92 47.84 65.48L65.34 120.81C65.61 121.69 66.64 122.29 67.76 122.27C68.88 122.25 69.85 121.6 70.06 120.72L96.94 10.94L123.35 97.89C123.59 98.7 124.47 99.28 125.53 99.35C126.59 99.42 127.55 98.92 127.95 98.16L144.74 68.66L161.23 120.82C161.5 121.7 162.53 122.3 163.65 122.28C164.77 122.26 165.74 121.61 165.95 120.73L192.85 10.95L219.26 97.9C219.5 98.71 220.38 99.29 221.44 99.36C222.5 99.43 223.46 98.93 223.86 98.17L240.78 64.78C241.9 62.61 244.56 61.17 247.52 61.17H286.9C288.37 61.17 289.54 60.13 289.28 58.93L289.27 58.92Z" fill="black"/>
</g>
<defs>
<clipPath id="clip0_4_2">
<rect width="289.3" height="122.27" fill="white"/>
</clipPath>
</defs>
</svg>
