<svg width="57" height="48" viewBox="0 0 57 48" fill="none" xmlns="http://www.w3.org/2000/svg">
<path d="M55.575 1.5H15.675V9.09375C15.2119 9.02812 14.7309 9 14.25 9V1.5V0H15.675H55.575H57V1.5V37.5V39H55.575H28.9097L28.4822 37.5H55.575V1.5ZM37.05 10.5H37.7625H46.3125H47.025V11.25V20.25V21H45.6V20.25V13.0594L34.7077 24.5344L34.2 25.0687L33.6923 24.5344L26.5673 17.0344L26.0597 16.5L27.075 15.4406L27.5827 15.975L34.2 22.9406L44.5936 12H37.7625H37.05V10.5ZM14.25 28.5C16.1397 28.5 17.9519 27.7098 19.2881 26.3033C20.6243 24.8968 21.375 22.9891 21.375 21C21.375 19.0109 20.6243 17.1032 19.2881 15.6967C17.9519 14.2902 16.1397 13.5 14.25 13.5C12.3603 13.5 10.5481 14.2902 9.21186 15.6967C7.87567 17.1032 7.125 19.0109 7.125 21C7.125 22.9891 7.87567 24.8968 9.21186 26.3033C10.5481 27.7098 12.3603 28.5 14.25 28.5ZM14.25 12C15.3728 12 16.4846 12.2328 17.5219 12.6851C18.5593 13.1374 19.5018 13.8003 20.2958 14.636C21.0897 15.4718 21.7195 16.4639 22.1492 17.5558C22.5788 18.6478 22.8 19.8181 22.8 21C22.8 22.1819 22.5788 23.3522 22.1492 24.4441C21.7195 25.5361 21.0897 26.5282 20.2958 27.364C19.5018 28.1997 18.5593 28.8626 17.5219 29.3149C16.4846 29.7672 15.3728 30 14.25 30C13.1272 30 12.0154 29.7672 10.9781 29.3149C9.94072 28.8626 8.99818 28.1997 8.20424 27.364C7.4103 26.5282 6.78051 25.5361 6.35083 24.4441C5.92115 23.3522 5.7 22.1819 5.7 21C5.7 19.8181 5.92115 18.6478 6.35083 17.5558C6.78051 16.4639 7.4103 15.4718 8.20424 14.636C8.99818 13.8003 9.94072 13.1374 10.9781 12.6851C12.0154 12.2328 13.1272 12 14.25 12ZM5.33484 34.5L1.91484 46.5H26.5852L23.1652 34.5H5.33484ZM24.225 33L28.0725 46.5L28.5 48H27.0127H1.48734H0L0.4275 46.5L4.275 33H24.225Z" fill="#F0FF46"/>
</svg>
