<svg width="74" height="59" viewBox="0 0 74 59" fill="none" xmlns="http://www.w3.org/2000/svg">
<g clip-path="url(#clip0_71_3735)">
<path d="M72.15 1.84375H20.35V11.1777C19.7488 11.0971 19.1244 11.0625 18.5 11.0625V1.84375V0H20.35H72.15H74V1.84375V46.0938V47.9375H72.15H37.5319L36.9769 46.0938H72.15V1.84375ZM48.1 12.9062H49.025H60.125H61.05V13.8281V24.8906V25.8125H59.2V24.8906V16.0521L45.0591 30.1568L44.4 30.8137L43.7409 30.1568L34.4909 20.9381L33.8319 20.2812L35.15 18.9791L35.8091 19.6359L44.4 28.1979L57.8934 14.75H49.025H48.1V12.9062ZM18.5 35.0312C20.9533 35.0313 23.306 34.06 25.0407 32.3311C26.7754 30.6023 27.75 28.2575 27.75 25.8125C27.75 23.3675 26.7754 21.0227 25.0407 19.2939C23.306 17.565 20.9533 16.5938 18.5 16.5938C16.0467 16.5938 13.694 17.565 11.9593 19.2939C10.2246 21.0227 9.25 23.3675 9.25 25.8125C9.25 28.2575 10.2246 30.6023 11.9593 32.3311C13.694 34.06 16.0467 35.0312 18.5 35.0312ZM18.5 14.75C19.9577 14.75 21.4011 15.0361 22.7478 15.5921C24.0945 16.148 25.3182 16.9629 26.3489 17.9901C27.3796 19.0174 28.1972 20.2369 28.7551 21.5791C29.3129 22.9212 29.6 24.3598 29.6 25.8125C29.6 27.2652 29.3129 28.7038 28.7551 30.0459C28.1972 31.3881 27.3796 32.6076 26.3489 33.6349C25.3182 34.6621 24.0945 35.477 22.7478 36.0329C21.4011 36.5889 19.9577 36.875 18.5 36.875C17.0423 36.875 15.5989 36.5889 14.2522 36.0329C12.9055 35.477 11.6818 34.6621 10.6511 33.6349C9.62038 32.6076 8.80276 31.3881 8.24494 30.0459C7.68711 28.7038 7.4 27.2652 7.4 25.8125C7.4 24.3598 7.68711 22.9212 8.24494 21.5791C8.80276 20.2369 9.62038 19.0174 10.6511 17.9901C11.6818 16.9629 12.9055 16.148 14.2522 15.5921C15.5989 15.0361 17.0423 14.75 18.5 14.75ZM6.92594 42.4062L2.48594 57.1562H34.5141L30.0741 42.4062H6.92594ZM31.45 40.5625L36.445 57.1562L37 59H35.0691H1.93094H0L0.555 57.1562L5.55 40.5625H31.45Z" fill="#F0FF46" stroke="#F0FF46"/>
</g>
<defs>
<clipPath id="clip0_71_3735">
<rect width="74" height="59" fill="white"/>
</clipPath>
</defs>
</svg>
